<svg aria-hidden="true" style="position: absolute; width: 0; height: 0; overflow: hidden;" version="1.1" xmlns="http://www.w3.org/2000/svg" xmlns:xlink="http://www.w3.org/1999/xlink">
<defs>
<symbol id="icon-instagram" viewBox="0 0 32 32">
<path d="M23.339 0h-14.676c-4.782 0.005-8.657 3.88-8.663 8.662v14.677c0.006 4.782 3.881 8.656 8.662 8.662h14.677c4.782-0.006 8.656-3.88 8.662-8.661v-14.677c-0.006-4.782-3.88-8.656-8.662-8.662h-0.001zM30.125 23.338c-0.005 3.746-3.040 6.781-6.786 6.786h-14.677c-3.746-0.004-6.782-3.040-6.787-6.785v-14.677c0.004-3.746 3.040-6.782 6.786-6.786h14.677c3.746 0.004 6.782 3.040 6.786 6.786v0z"></path>
<path d="M16.001 6.807c-5.077 0-9.192 4.116-9.192 9.192s4.116 9.192 9.192 9.192 9.192-4.116 9.192-9.192v0c-0.006-5.075-4.118-9.187-9.192-9.192h-0.001zM16.001 23.221c-3.988 0-7.222-3.233-7.222-7.222s3.233-7.222 7.222-7.222c3.988 0 7.222 3.233 7.222 7.222v0c-0.005 3.987-3.235 7.217-7.221 7.222h-0z"></path>
<path d="M24.639 4.936c-1.341 0-2.428 1.087-2.428 2.428s1.087 2.428 2.428 2.428c1.341 0 2.428-1.087 2.428-2.428v0c-0.001-1.34-1.087-2.426-2.427-2.428h-0zM24.639 8.029c-0.368-0-0.666-0.298-0.666-0.666s0.298-0.666 0.666-0.666 0.666 0.298 0.666 0.666v0c-0 0.368-0.299 0.666-0.667 0.666h-0z"></path>
</symbol>
<symbol id="icon-facebook" viewBox="0 0 32 32">
<path d="M17.918 31.675v-13.575h4.135v-4.525h-4.135v-4.525c0-1.583-0.024-2.262 2.068-2.262h4.135v-6.787h-4.926c-4.884 0.14-7.48 4.298-7.48 9.051v4.524h-4.136v4.525h4.135v13.575z"></path>
</symbol>
<symbol id="icon-twitter" viewBox="0 0 32 32">
<path d="M9.327 28.949c12.129 0 18.347-9.134 18.347-17.444v-2.18c1.252-0.849 3.695-0.993 4.591-2.18-1.252 0.509-3.339-0.17-4.591 0 1.427-0.849 1.759-0.824 2.293-2.18-1.252 0.679-3.16-0.339-4.591 0-1.115-1.308-2.752-2.143-4.585-2.18l-0.006-0c-3.653 0.071-6.619 2.919-6.879 6.516l-0.001 0.023c-0.043 0.327-0.067 0.706-0.067 1.090s0.024 0.763 0.072 1.134l-0.005-0.044c-5.529-0.339-10.131-4.345-13.341-8.246-0.3 0.861-0.473 1.853-0.473 2.886 0 0.352 0.020 0.699 0.059 1.041l-0.004-0.042c0 2.205 0.689 5.355 2.293 6.539-1.070 0-1.401-1.67-2.293-2.18v0c0 3.053 1.554 6.033 4.591 6.539-0.536 0.17 0.714 0 0 0-0.344 0.040-0.743 0.064-1.146 0.064s-0.802-0.023-1.194-0.068l0.048 0.004c0.892 2.545 3.848 4.192 6.88 4.362-2.319 1.696-6.141 2.18-9.173 2.18-0.536 0 0.536 0.17 0 0 2.854 2.035 5.426 4.362 9.173 4.362z"></path>
</symbol>
</defs>
</svg>
